<?xml version="1.0" encoding="utf-8"?>
<!-- Generator: Adobe Illustrator 24.0.1, SVG Export Plug-In . SVG Version: 6.00 Build 0)  -->
<svg version="1.1" id="Layer_1" xmlns="http://www.w3.org/2000/svg" xmlns:xlink="http://www.w3.org/1999/xlink" x="0px" y="0px"
	 viewBox="0 0 56.69 56.69" style="enable-background:new 0 0 56.69 56.69;" xml:space="preserve">
<style type="text/css">
	.st0{fill:#0095FF;}
</style>
<path class="st0" d="M23.13,43.46h7.62c1.07,0,2.07,0.73,2.24,1.78c0.22,1.34-0.81,2.51-2.12,2.51c-0.95,0-1.75-0.62-2.04-1.47
	c-0.14-0.42-0.58-0.68-1.02-0.68h-2.2c-0.66,0-1.19,0.59-1.07,1.23c0.58,2.96,3.19,5.2,6.32,5.2c3.83,0,6.89-3.36,6.38-7.28
	c-0.41-3.25-3.33-5.59-6.6-5.59h-7.69H5.02H3.28c-0.59,0-1.07,0.48-1.07,1.07v2.15c0,0.59,0.48,1.07,1.07,1.07h1.91H23.13z
	 M24.05,37.02h19.71c4,0,7.16-3.68,6.29-7.83c-0.51-2.43-2.47-4.39-4.9-4.9c-3.72-0.78-7.05,1.67-7.71,5.06
	c-0.13,0.64,0.41,1.23,1.06,1.23h2.2c0.45,0,0.88-0.25,1.02-0.68c0.29-0.85,1.09-1.47,2.04-1.47c1.3,0,2.34,1.17,2.12,2.51
	c-0.17,1.05-1.17,1.78-2.24,1.78H23.82H5.87h-2.6c-0.59,0-1.07,0.48-1.07,1.07v2.15c0,0.59,0.48,1.07,1.07,1.07H6.1H24.05z
	 M46.97,39.17H36.49c1.29,1.11,2.23,2.6,2.67,4.29h7.81c1.78,0,3.22,1.44,3.22,3.22s-1.44,3.22-3.22,3.22
	c-1.2,0-2.23-0.66-2.79-1.64c-0.19-0.34-0.58-0.51-0.97-0.51h-2.27c-0.73,0-1.27,0.72-1.03,1.42c1.19,3.39,4.73,5.69,8.68,4.85
	c2.76-0.58,5.04-2.79,5.68-5.55C55.43,43.56,51.7,39.17,46.97,39.17z M28.63,21.97V3.59c0-0.4-0.33-0.73-0.73-0.73h-3.41
	c-0.4,0-0.73,0.33-0.73,0.73v18.38h-2.8c-1.3,0-1.95,1.57-1.03,2.49l5.24,5.24c0.57,0.57,1.5,0.57,2.07,0l5.24-5.24
	c0.92-0.92,0.27-2.49-1.03-2.49H28.63z"/>
</svg>
