<?xml version="1.0" standalone="no"?>
<!DOCTYPE svg PUBLIC "-//W3C//DTD SVG 20010904//EN"
 "http://www.w3.org/TR/2001/REC-SVG-20010904/DTD/svg10.dtd">
<svg version="1.0" xmlns="http://www.w3.org/2000/svg"
 width="512.000000pt" height="512.000000pt" viewBox="0 0 512.000000 512.000000"
 preserveAspectRatio="xMidYMid meet">

<g transform="translate(0.000000,512.000000) scale(0.100000,-0.100000)"
fill="#000000" stroke="none">
<path d="M2395 4634 c-223 -26 -376 -59 -540 -119 -785 -284 -1321 -1003
-1371 -1838 l-7 -117 162 0 161 0 0 48 c0 26 5 88 10 137 47 416 227 785 521
1071 154 148 266 228 447 319 569 284 1233 238 1774 -124 160 -107 386 -332
461 -460 l18 -31 -415 0 -416 0 0 -160 0 -160 640 0 640 0 0 640 0 640 -160 0
-160 0 0 -291 0 -291 -112 114 c-352 356 -791 567 -1287 617 -96 10 -296 13
-366 5z"/>
<path d="M3443 2551 c-58 -15 -137 -67 -174 -116 -73 -94 -69 -36 -69 -1131
l0 -984 160 0 160 0 0 400 0 400 320 0 320 0 0 -400 0 -400 160 0 160 0 -2
1003 -3 1002 -27 51 c-40 76 -70 107 -140 145 l-63 34 -385 2 c-212 1 -399 -2
-417 -6z m717 -711 l0 -400 -320 0 -320 0 0 400 0 400 320 0 320 0 0 -400z"/>
<path d="M640 1280 l0 -640 160 0 160 0 0 291 0 291 113 -114 c238 -241 512
-414 827 -519 188 -63 448 -109 611 -109 l49 0 0 159 0 158 -105 7 c-341 22
-672 143 -945 344 -101 75 -304 280 -369 372 l-52 75 415 3 416 2 0 160 0 160
-640 0 -640 0 0 -640z"/>
</g>
</svg>
