<?xml version="1.0" encoding="utf-8"?>
<!-- Generator: Adobe Illustrator 24.0.1, SVG Export Plug-In . SVG Version: 6.00 Build 0)  -->
<svg version="1.1" id="Layer_1" xmlns="http://www.w3.org/2000/svg" xmlns:xlink="http://www.w3.org/1999/xlink" x="0px" y="0px"
	 viewBox="0 0 56.69 56.69" style="enable-background:new 0 0 56.69 56.69;" xml:space="preserve">
<style type="text/css">
	.st0{fill:#0095FF;}
</style>
<title>Device temp2</title>
<path class="st0" d="M20.66,52.68L20.66,52.68h0.18h2.79c0.18-0.01,0.36-0.03,0.54-0.06c0.32-0.05,0.63-0.17,0.91-0.33
	c0.14-0.08,0.27-0.18,0.39-0.29c0.13-0.14,0.24-0.3,0.37-0.45l0.43-0.53l0.49-0.6c0.14-0.18,0.29-0.35,0.44-0.53l0.43-0.53
	c0.14-0.18,0.29-0.35,0.43-0.52l0.48-0.6c0.15-0.18,0.3-0.35,0.44-0.53l0.49-0.6c0.14-0.18,0.29-0.35,0.44-0.53l0.44-0.54l0.36-0.45
	l0.35-0.39l0.35-0.43l0.36-0.44l0.33-0.41c0.21-0.25,0.4-0.52,0.63-0.76c0.2-0.21,0.41-0.41,0.63-0.59c0.19-0.17,0.39-0.32,0.6-0.46
	l0.36-0.24l0,0h-3.08c-0.27,0-0.54,0.07-0.79,0.18c-0.41,0.2-0.78,0.46-1.1,0.78c-0.14,0.13-0.28,0.28-0.41,0.42
	c-0.13,0.14-0.23,0.27-0.34,0.4l-0.36,0.44c-0.12,0.15-0.25,0.3-0.37,0.46c-0.12,0.16-0.32,0.39-0.48,0.59l-0.52,0.62l-0.5,0.61
	l-0.49,0.6c-0.15,0.18-0.28,0.36-0.43,0.53l-0.51,0.62l-0.61,0.75l-0.58,0.73l-0.62,0.81L22.66,51c-0.2,0.25-0.41,0.5-0.62,0.74
	c-0.08,0.09-0.17,0.17-0.26,0.25c-0.11,0.1-0.23,0.19-0.35,0.28c-0.18,0.14-0.37,0.26-0.58,0.35L20.66,52.68z M15.07,52.68
	L15.07,52.68h0.2h1.66c0.37,0,0.74,0,1.12,0c0.24-0.01,0.48-0.05,0.72-0.1c0.28-0.06,0.55-0.17,0.8-0.32
	c0.16-0.1,0.31-0.23,0.42-0.38c0.14-0.18,0.29-0.35,0.44-0.53l0.48-0.6l0.38-0.45l0.49-0.6l0.43-0.53l0.49-0.6
	c0.14-0.18,0.29-0.35,0.44-0.53l0.42-0.53L24,46.99l0.44-0.54l0.35-0.43l0.42-0.52l0.43-0.52c0.17-0.2,0.33-0.41,0.49-0.61
	l0.36-0.44c0.21-0.27,0.42-0.54,0.66-0.8c0.24-0.26,0.41-0.4,0.63-0.6c0.27-0.24,0.57-0.45,0.88-0.64l0.09-0.06l0,0h-3.08
	c-0.28,0-0.55,0.07-0.8,0.18c-0.4,0.2-0.77,0.46-1.09,0.77c-0.18,0.17-0.35,0.35-0.52,0.54c-0.17,0.19-0.29,0.35-0.43,0.53
	s-0.29,0.35-0.43,0.52l-0.44,0.53l-0.42,0.53l-0.38,0.45c-0.15,0.18-0.29,0.36-0.44,0.53l-0.43,0.53l-0.43,0.53l-0.31,0.39
	l-0.35,0.41c-0.12,0.16-0.25,0.31-0.38,0.46l-0.39,0.49l-0.22,0.3h1.76l0,0l-0.57,0.74l-0.54,0.71c-0.05,0.07-0.13,0.11-0.21,0.11
	h-1.59c-0.04,0-0.09,0.01-0.11,0.05c-0.15,0.18-0.29,0.36-0.46,0.53c-0.19,0.19-0.38,0.37-0.59,0.54c-0.18,0.15-0.38,0.28-0.6,0.36
	L15.07,52.68z M28.45,50.11l0.5-0.26c0.42-0.18,0.88-0.29,1.34-0.32c0.19-0.01,0.37-0.01,0.56,0h1h2h0.7h0.74h0.29l0.76-0.07
	l0.55-0.06l0.81-0.13c0.32-0.06,0.63-0.13,1-0.21c0.41-0.11,0.81-0.28,1.16-0.52c0.29-0.18,0.55-0.4,0.8-0.63
	c0.26-0.24,0.5-0.5,0.7-0.79c0.18-0.26,0.33-0.54,0.44-0.84c0.13-0.35,0.22-0.71,0.24-1.08c0.01-0.15,0.01-0.29,0-0.44
	c-0.01-0.22-0.03-0.43-0.06-0.65c-0.08-0.44-0.28-0.85-0.58-1.19c-0.28-0.31-0.62-0.55-1-0.7L40.13,42l0,0l0.27,0.24
	c0.23,0.26,0.37,0.59,0.38,0.94c0.01,0.13,0.01,0.27,0,0.4c-0.02,0.17-0.04,0.35-0.08,0.52c-0.07,0.29-0.19,0.56-0.34,0.81
	c-0.21,0.35-0.49,0.66-0.81,0.92c-0.24,0.19-0.51,0.35-0.8,0.47c-0.21,0.08-0.42,0.16-0.64,0.22c-0.33,0.08-0.66,0.13-1,0.15h-2.89
	h-0.65h-0.78c-0.17,0.01-0.34,0.02-0.51,0.05c-0.29,0.04-0.57,0.11-0.84,0.21c-0.31,0.12-0.6,0.3-0.83,0.54
	c-0.16,0.16-0.31,0.34-0.46,0.52l-0.42,0.53c-0.15,0.17-0.29,0.35-0.44,0.53l-0.51,0.62C28.67,49.85,28.57,50,28.45,50.11
	L28.45,50.11z M39.15,45.7c0.22-0.16,0.42-0.35,0.6-0.55c0.21-0.25,0.39-0.53,0.53-0.83c0.12-0.29,0.19-0.59,0.21-0.9
	c0.01-0.17,0.01-0.35,0-0.52c-0.03-0.29-0.14-0.56-0.31-0.8c-0.03-0.04-0.07-0.08-0.12-0.1c-0.51-0.18-1.05-0.26-1.59-0.26
	c-0.29,0-0.58,0-0.87,0s-0.44,0-0.66,0.06l-0.62,0.11c-0.33,0.06-0.64,0.18-0.93,0.36c-0.2,0.13-0.39,0.26-0.58,0.41
	c-0.28,0.25-0.53,0.54-0.73,0.86c-0.22,0.31-0.44,0.61-0.67,0.91l-0.16,0.23l0.25-0.08c0.4-0.14,0.81-0.24,1.23-0.29
	c0.26,0,0.51-0.07,0.77-0.09h0.57c0.17-0.01,0.33-0.01,0.5,0c0.33,0,0.67,0,1,0c0.2,0.01,0.4,0.04,0.59,0.08
	c0.33,0.06,0.63,0.23,0.85,0.48c0.13,0.18,0.2,0.4,0.2,0.63C39.19,45.52,39.16,45.61,39.15,45.7L39.15,45.7z M15.15,49.51h1.75
	c0.02,0.01,0.04,0.01,0.06,0l0.16-0.21l0.48-0.63l0.42-0.54c0.05,0,0.09-0.12,0.14-0.18h-1.72h-0.06l-0.43,0.57l-0.42,0.54
	L15.15,49.51z M14.65,46.34h1.41h0.05l0.21-0.26l0.57-0.75l0.13-0.18h-1.37h-0.07l-0.16,0.21L15,45.91L14.65,46.34z"/>
<path class="st0" d="M20.66,52.68l0.19-0.06c0.21-0.09,0.4-0.21,0.58-0.35c0.12-0.09,0.24-0.18,0.35-0.28
	c0.09-0.08,0.18-0.16,0.26-0.25c0.21-0.24,0.42-0.49,0.62-0.74l0.47-0.61l0.62-0.81l0.58-0.73l0.61-0.75l0.51-0.62
	c0.15-0.17,0.28-0.35,0.43-0.53l0.49-0.6l0.5-0.61l0.52-0.62c0.16-0.2,0.31-0.4,0.48-0.59c0.17-0.19,0.25-0.31,0.37-0.46l0.36-0.44
	c0.11-0.13,0.22-0.27,0.34-0.4c0.12-0.13,0.27-0.29,0.41-0.42c0.32-0.32,0.69-0.58,1.1-0.78c0.25-0.11,0.52-0.18,0.79-0.18h3.09l0,0
	l-0.36,0.24c-0.21,0.14-0.41,0.29-0.6,0.46c-0.22,0.18-0.43,0.38-0.63,0.59c-0.23,0.24-0.42,0.51-0.63,0.76l-0.33,0.41l-0.36,0.44
	l-0.36,0.45l-0.36,0.44l-0.36,0.45l-0.44,0.54c-0.15,0.18-0.3,0.35-0.44,0.53l-0.49,0.6c-0.14,0.18-0.29,0.35-0.44,0.53l-0.48,0.6
	c-0.14,0.17-0.29,0.34-0.43,0.52l-0.43,0.53c-0.15,0.18-0.3,0.35-0.44,0.53l-0.49,0.6l-0.43,0.53c-0.13,0.15-0.24,0.31-0.37,0.45
	c-0.12,0.11-0.25,0.21-0.39,0.29c-0.28,0.16-0.59,0.28-0.91,0.33c-0.18,0.03-0.36,0.05-0.54,0.06h-2.78h-0.18V52.68z"/>
<path class="st0" d="M15.06,52.69l0.23-0.09c0.22-0.08,0.42-0.21,0.6-0.36c0.21-0.17,0.4-0.35,0.59-0.54
	c0.17-0.17,0.31-0.35,0.46-0.53c0.02-0.04,0.07-0.05,0.11-0.05h1.57c0.08,0,0.16-0.04,0.21-0.11l0.54-0.71l0.57-0.74l0,0h-1.73
	l0.22-0.3l0.39-0.49c0.13-0.15,0.26-0.3,0.38-0.46l0.35-0.41l0.31-0.39l0.43-0.53l0.43-0.53c0.15-0.17,0.29-0.35,0.44-0.53
	l0.38-0.45l0.42-0.53l0.44-0.53c0.14-0.17,0.28-0.35,0.43-0.52c0.15-0.17,0.28-0.36,0.43-0.53c0.15-0.17,0.34-0.37,0.52-0.54
	c0.32-0.33,0.68-0.61,1.09-0.82c0.25-0.11,0.52-0.18,0.8-0.18h3.07l0,0l-0.09,0.06c-0.31,0.19-0.61,0.4-0.88,0.64
	c-0.22,0.2-0.44,0.39-0.63,0.6s-0.45,0.53-0.66,0.8l-0.36,0.44c-0.16,0.2-0.32,0.41-0.49,0.61l-0.43,0.52l-0.42,0.52l-0.35,0.43
	l-0.44,0.54l-0.44,0.52l-0.42,0.53c-0.15,0.18-0.3,0.35-0.44,0.53l-0.49,0.6l-0.43,0.53l-0.49,0.6l-0.38,0.45l-0.48,0.6
	c-0.15,0.18-0.3,0.35-0.44,0.53c-0.11,0.15-0.26,0.28-0.42,0.38c-0.25,0.15-0.52,0.26-0.8,0.32c-0.24,0.05-0.48,0.09-0.72,0.1
	c-0.38,0-0.75,0-1.12,0h-1.65h-0.2L15.06,52.69z"/>
<path class="st0" d="M28.45,50.12c0.12-0.13,0.22-0.27,0.33-0.4l0.51-0.62c0.15-0.18,0.29-0.36,0.44-0.53l0.42-0.53
	c0.15-0.18,0.3-0.36,0.46-0.52c0.23-0.24,0.52-0.42,0.83-0.54c0.27-0.1,0.55-0.17,0.84-0.21c0.17-0.03,0.34-0.04,0.51-0.05h0.78
	h0.65h2.84c0.34-0.02,0.67-0.07,1-0.15c0.22-0.06,0.43-0.14,0.64-0.22c0.29-0.12,0.56-0.28,0.8-0.47c0.32-0.26,0.6-0.57,0.81-0.92
	c0.15-0.25,0.27-0.52,0.34-0.81c0.04-0.17,0.06-0.35,0.08-0.52c0.01-0.13,0.01-0.27,0-0.4c-0.01-0.35-0.15-0.68-0.38-0.94
	l-0.27-0.24l0,0l0.27,0.11c0.38,0.15,0.72,0.39,1,0.7c0.29,0.32,0.5,0.71,0.59,1.14c0.03,0.22,0.05,0.43,0.06,0.65
	c0.01,0.15,0.01,0.29,0,0.44c-0.02,0.37-0.11,0.73-0.24,1.08c-0.11,0.3-0.26,0.58-0.44,0.84c-0.2,0.29-0.44,0.55-0.7,0.79
	c-0.25,0.23-0.51,0.45-0.8,0.63c-0.35,0.26-0.74,0.45-1.16,0.57c-0.32,0.08-0.63,0.15-1,0.21l-0.81,0.13L36.3,49.4l-0.76,0.07h-0.29
	h-0.69h-0.7h-2h-1c-0.19-0.01-0.37-0.01-0.56,0c-0.46,0.03-0.92,0.14-1.34,0.32L28.45,50.12z"/>
<path class="st0" d="M39.15,45.71c0-0.1,0-0.19,0-0.27c0-0.23-0.07-0.45-0.2-0.63c-0.22-0.25-0.52-0.42-0.85-0.48
	c-0.19-0.04-0.39-0.07-0.59-0.08c-0.33,0-0.67,0-1,0c-0.17-0.01-0.33-0.01-0.5,0h-0.57c-0.26,0-0.51,0.06-0.77,0.09
	c-0.42,0.05-0.83,0.15-1.23,0.29l-0.25,0.08l0.16-0.23c0.23-0.3,0.45-0.6,0.67-0.91c0.2-0.32,0.45-0.61,0.73-0.86
	c0.19-0.15,0.38-0.28,0.58-0.41c0.29-0.18,0.6-0.3,0.93-0.36l0.62-0.11c0.22,0,0.44-0.02,0.66-0.06c0.29,0,0.58,0,0.87,0
	c0.56-0.02,1.12,0.06,1.65,0.23c0.04,0.02,0.08,0.05,0.11,0.08c0.17,0.24,0.28,0.51,0.31,0.8c0.01,0.17,0.01,0.35,0,0.52
	c-0.02,0.31-0.09,0.61-0.21,0.9c-0.14,0.3-0.32,0.58-0.53,0.83C39.56,45.34,39.36,45.54,39.15,45.71z"/>
<path class="st0" d="M15.18,49.52l0.35-0.45l0.42-0.54l0.43-0.57h0.06h1.75c-0.05,0.06-0.09,0.13-0.14,0.18l-0.42,0.54l-0.48,0.63
	l-0.16,0.21c-0.02,0.01-0.04,0.01-0.06,0H15.18z"/>
<path class="st0" d="M14.68,46.35L15,45.93l0.42-0.55l0.16-0.21h0.07h1.32l-0.13,0.18l-0.57,0.75l-0.21,0.26h-0.05L14.68,46.35z"/>
<path class="st0" d="M23.78,17c-0.77-0.45-1.41-1.09-1.86-1.86c-0.92-1.58-0.92-3.53,0-5.11c0.45-0.77,1.09-1.41,1.86-1.86
	c1.57-0.94,3.54-0.94,5.11,0c0.77,0.44,1.41,1.07,1.86,1.83c0.94,1.57,0.94,3.54,0,5.11c-0.45,0.78-1.09,1.43-1.86,1.89
	C27.31,17.92,25.36,17.92,23.78,17z M28,14.2c0.45-0.44,0.7-1.04,0.69-1.67c-0.01-1.29-1.07-2.33-2.36-2.32
	c-1.29,0.01-2.33,1.07-2.32,2.36c0.01,0.61,0.25,1.2,0.68,1.63c0.85,0.91,2.27,0.95,3.18,0.1c0.03-0.03,0.07-0.07,0.1-0.1H28z"/>
<path class="st0" d="M38.86,32.17c-1.97-1.01-3.6-2.58-4.68-4.51c-1.15-2.09-1.72-4.45-1.67-6.83c-0.05-2.38,0.52-4.74,1.67-6.83
	c1.09-1.93,2.72-3.5,4.68-4.52c2.14-1.09,4.52-1.64,6.92-1.59c3.05-0.11,6.05,0.74,8.58,2.44v4.3c-2.32-1.84-5.23-2.77-8.19-2.63
	c-1.66-0.04-3.31,0.33-4.79,1.08c-1.34,0.69-2.45,1.76-3.19,3.07c-0.79,1.43-1.18,3.05-1.14,4.68c-0.04,1.64,0.36,3.26,1.15,4.69
	c0.76,1.31,1.87,2.37,3.21,3.07c1.47,0.74,3.11,1.11,4.76,1.08c1.59,0.02,3.16-0.21,4.68-0.67c1.39-0.45,2.68-1.17,3.8-2.11v4.29
	c-2.18,1.71-5.14,2.56-8.87,2.56C43.38,33.79,41,33.25,38.86,32.17z"/>
<path class="st0" d="M15.83,29.46c0.01,2.56-2.06,4.64-4.62,4.64c-2.56,0.01-4.64-2.06-4.64-4.62c0-1.66,0.88-3.2,2.32-4.03v-7.58
	c0.08-1.28,1.19-2.25,2.47-2.16c1.16,0.08,2.09,1,2.16,2.16v7.57C14.95,26.28,15.83,27.81,15.83,29.46z M18.15,23.33
	c3.38,3.84,3.01,9.69-0.83,13.07c-1.69,1.49-3.86,2.31-6.11,2.31h-0.07c-5.11-0.04-9.23-4.21-9.19-9.33
	c0.02-2.23,0.84-4.38,2.31-6.05V8.63c-0.15-3.84,2.85-7.06,6.68-7.21S18,4.27,18.15,8.1c0.01,0.18,0.01,0.35,0,0.53L18.15,23.33z
	 M17,29.46c0-2.49-1.4-3.78-2.31-4.81v-16c-0.1-1.92-1.74-3.39-3.66-3.29c-1.78,0.1-3.19,1.51-3.29,3.29v16
	c-0.92,1-2.3,2.32-2.31,4.78c-0.01,3.18,2.56,5.78,5.74,5.81h0.05C14.41,35.24,17,32.65,17,29.46L17,29.46z"/>
</svg>
