<?xml version="1.0" standalone="no"?>
<!DOCTYPE svg PUBLIC "-//W3C//DTD SVG 20010904//EN"
 "http://www.w3.org/TR/2001/REC-SVG-20010904/DTD/svg10.dtd">
<svg version="1.0" xmlns="http://www.w3.org/2000/svg"
 width="512.000000pt" height="512.000000pt" viewBox="0 0 512.000000 512.000000"
 preserveAspectRatio="xMidYMid meet">

<g transform="translate(0.000000,512.000000) scale(0.100000,-0.100000)"
fill="#000000" stroke="none">
<path d="M1759 5105 c-29 -16 -28 -14 -168 -365 -301 -758 -602 -1344 -1008
-1962 -281 -427 -411 -902 -363 -1323 64 -556 405 -1045 898 -1290 433 -215
931 -218 1367 -10 111 53 140 81 140 137 0 33 -6 45 -33 69 -18 16 -43 29 -56
29 -13 0 -70 -22 -127 -49 -116 -54 -225 -91 -350 -118 -118 -25 -381 -24
-499 1 -426 92 -786 365 -984 746 -115 223 -159 401 -160 655 -1 184 8 252 55
434 61 232 140 397 326 683 344 526 633 1083 914 1757 49 117 89 217 89 222 0
31 21 -7 64 -113 211 -522 531 -1173 774 -1573 l61 -100 -108 -11 c-326 -35
-601 -169 -822 -402 -212 -222 -334 -498 -355 -805 -8 -110 3 -150 47 -172 35
-19 63 -19 98 0 37 18 48 51 55 157 18 272 128 512 320 704 156 155 340 255
551 300 89 19 326 34 342 21 18 -13 144 -221 189 -308 45 -90 95 -220 122
-316 l20 -73 -103 0 c-146 0 -242 -21 -355 -76 -79 -39 -110 -62 -181 -133
-71 -71 -94 -102 -133 -181 -65 -132 -93 -291 -64 -355 7 -15 24 -33 39 -41
75 -38 149 11 149 101 0 215 180 428 398 474 29 6 106 11 172 11 l118 0 7 -87
c20 -229 -23 -468 -127 -711 -36 -84 -38 -96 -28 -127 15 -45 44 -65 95 -65
47 0 70 19 104 87 109 218 168 504 158 765 -7 158 -22 138 118 158 252 37 502
167 701 365 233 230 363 522 381 853 l6 112 72 -69 c39 -38 84 -73 98 -76 76
-19 141 46 122 123 -9 37 -330 358 -368 367 -15 4 -39 4 -55 0 -37 -9 -358
-330 -367 -367 -19 -77 46 -142 122 -123 14 3 60 39 101 78 l75 72 -6 -110
c-15 -274 -128 -528 -321 -720 -177 -177 -416 -292 -662 -319 l-61 -7 -22 88
c-44 174 -139 394 -245 570 -31 51 -56 94 -56 96 0 3 21 12 48 22 71 26 189
97 264 160 155 127 275 321 330 530 20 73 22 113 25 484 l4 403 73 -70 c40
-39 85 -74 99 -77 76 -19 141 46 122 123 -9 37 -330 358 -367 367 -16 4 -40 4
-55 0 -38 -9 -359 -330 -368 -367 -19 -77 46 -142 122 -123 14 3 60 39 100 78
l74 72 -3 -395 c-4 -325 -7 -405 -20 -450 -85 -291 -275 -491 -545 -574 -19
-6 -28 2 -69 65 -269 421 -618 1128 -868 1764 -48 121 -94 237 -103 258 -26
60 -88 83 -144 52z"/>
<path d="M2831 656 c-87 -48 -50 -186 49 -186 51 0 100 49 100 99 0 75 -83
124 -149 87z"/>
</g>
</svg>
