<svg id="Layer_1" data-name="Layer 1" xmlns="http://www.w3.org/2000/svg" viewBox="0 0 24 24"><defs><style>.cls-1,.cls-2,.cls-3{fill:none;}.cls-2,.cls-3{stroke:#ececec;stroke-width:1.5px;}.cls-2{stroke-miterlimit:10;}.cls-3{stroke-linecap:round;stroke-linejoin:round;}</style></defs><title>Ethernet_icon_gray</title><rect class="cls-1" width="24" height="24"/><path class="cls-2" d="M21,22.1H3.1A2.26,2.26,0,0,1,.8,19.88V19.8h0V4.6A2.26,2.26,0,0,1,3,2.3H20.9a2.26,2.26,0,0,1,2.3,2.22V4.6h0V19.8a2.14,2.14,0,0,1-2,2.3H21Z"/><line class="cls-2" x1="11.96" y1="9.3" x2="11.96" y2="12"/><rect class="cls-3" x="16.81" y="15.1" width="4.1" height="3.9" rx="0.5"/><rect class="cls-3" x="9.91" y="5.4" width="4.1" height="3.9" rx="0.5"/><rect class="cls-3" x="3.09" y="15.1" width="4.1" height="3.9" rx="0.5"/><path class="cls-2" d="M5.14,15.1V12.8a.52.52,0,0,1,.5-.5H18.36a.5.5,0,0,1,.5.5v2.3"/></svg>