<?xml version="1.0" encoding="utf-8"?>
<!-- Generator: Adobe Illustrator 24.0.1, SVG Export Plug-In . SVG Version: 6.00 Build 0)  -->
<svg version="1.1" id="Layer_1" xmlns="http://www.w3.org/2000/svg" xmlns:xlink="http://www.w3.org/1999/xlink" x="0px" y="0px"
	 viewBox="0 0 24 24" style="enable-background:new 0 0 24 24;" xml:space="preserve">
<style type="text/css">
	.st0{fill:none;}
	.st1{fill:none;stroke:#00D68F;stroke-width:1.5;stroke-miterlimit:10;}
	.st2{fill:none;stroke:#00D68F;stroke-width:1.5;stroke-linecap:round;stroke-linejoin:round;}
</style>
<rect class="st0" width="24" height="24"/>
<path class="st1" d="M21,22.1H3.1c-1.2,0-2.3-1-2.3-2.2c0,0,0-0.1,0-0.1l0,0V4.6c0-1.2,1-2.3,2.2-2.3c0,0,0.1,0,0.1,0h17.8
	c1.2,0,2.3,1,2.3,2.2c0,0,0,0.1,0,0.1l0,0v15.2c0.1,1.2-0.8,2.2-2,2.3c0,0,0,0,0,0L21,22.1z"/>
<line class="st1" x1="12" y1="9.3" x2="12" y2="12"/>
<path class="st2" d="M17.3,15.1h3.1c0.3,0,0.5,0.2,0.5,0.5v2.9c0,0.3-0.2,0.5-0.5,0.5h-3.1c-0.3,0-0.5-0.2-0.5-0.5v-2.9
	C16.8,15.3,17,15.1,17.3,15.1z"/>
<path class="st2" d="M10.4,5.4h3.1c0.3,0,0.5,0.2,0.5,0.5v2.9c0,0.3-0.2,0.5-0.5,0.5h-3.1c-0.3,0-0.5-0.2-0.5-0.5V5.9
	C9.9,5.6,10.1,5.4,10.4,5.4z"/>
<path class="st2" d="M3.6,15.1h3.1c0.3,0,0.5,0.2,0.5,0.5v2.9C7.2,18.8,7,19,6.7,19H3.6c-0.3,0-0.5-0.2-0.5-0.5v-2.9
	C3.1,15.3,3.3,15.1,3.6,15.1z"/>
<path class="st1" d="M5.1,15.1v-2.3c0-0.3,0.2-0.5,0.5-0.5h12.7c0.3,0,0.5,0.2,0.5,0.5v2.3"/>
</svg>
