<?xml version="1.0" standalone="no"?>
<!DOCTYPE svg PUBLIC "-//W3C//DTD SVG 20010904//EN"
 "http://www.w3.org/TR/2001/REC-SVG-20010904/DTD/svg10.dtd">
<svg version="1.0" xmlns="http://www.w3.org/2000/svg"
 width="512.000000pt" height="512.000000pt" viewBox="0 0 512.000000 512.000000"
 preserveAspectRatio="xMidYMid meet">

<g transform="translate(0.000000,512.000000) scale(0.100000,-0.100000)"
fill="#000000" stroke="none">
<path d="M2443 5110 c-232 -42 -440 -197 -542 -405 -64 -129 -76 -187 -75
-365 1 -339 134 -1115 267 -1563 l36 -119 -36 -46 c-20 -26 -51 -78 -69 -117
l-32 -70 -84 -18 c-123 -28 -310 -81 -512 -147 l-179 -59 6 112 c16 317 133
600 347 842 70 78 80 99 80 157 0 106 -120 175 -218 124 -75 -39 -265 -296
-347 -468 -110 -233 -159 -447 -159 -710 l-1 -166 -139 -57 c-76 -31 -140 -54
-143 -51 -10 10 -22 148 -23 263 -1 615 295 1203 794 1573 78 58 102 82 118
117 44 99 -28 203 -140 203 -50 0 -144 -61 -300 -195 -225 -193 -407 -431
-542 -710 -107 -220 -168 -414 -207 -660 -23 -142 -23 -505 -1 -643 l15 -93
-31 -21 c-47 -32 -154 -138 -187 -184 -45 -66 -95 -173 -115 -249 -28 -106
-26 -287 5 -385 37 -121 96 -223 178 -311 91 -96 186 -157 313 -200 86 -30
106 -33 220 -33 142 -1 200 10 310 61 94 43 143 74 310 197 322 237 657 526
933 803 l137 138 138 0 137 0 196 -195 c107 -107 234 -229 281 -270 48 -40 85
-77 82 -81 -9 -15 -132 -78 -222 -113 -161 -64 -292 -89 -477 -90 -130 -1
-184 4 -287 23 -126 24 -128 24 -168 6 -51 -23 -81 -64 -87 -119 -6 -52 17
-108 57 -136 32 -23 179 -56 310 -70 364 -38 762 59 1063 261 l58 38 120 -95
c66 -52 117 -99 114 -104 -3 -4 -57 -43 -120 -85 -552 -367 -1275 -425 -1878
-150 -90 41 -146 45 -195 15 -52 -32 -74 -76 -69 -138 5 -75 41 -108 175 -165
560 -239 1156 -248 1725 -26 180 70 415 206 565 327 l64 51 36 -15 c138 -60
239 -79 369 -71 315 21 577 234 675 547 19 63 23 96 22 205 0 120 -3 137 -33
225 -41 119 -101 218 -185 300 -102 100 -196 153 -502 283 -376 160 -926 344
-1182 397 l-63 13 -34 71 c-19 39 -50 93 -70 119 l-36 47 35 117 c42 141 94
356 132 546 l27 137 46 -26 c275 -159 496 -433 602 -748 37 -110 67 -149 127
-166 78 -20 160 28 181 107 13 47 -6 125 -67 275 -138 337 -418 645 -754 828
-48 25 -78 48 -78 58 0 35 33 277 39 284 9 11 242 -108 336 -171 302 -202 524
-454 684 -780 98 -200 157 -399 187 -640 8 -68 21 -126 32 -145 55 -93 200
-91 256 5 43 74 -11 414 -111 694 -207 581 -668 1066 -1240 1307 l-122 51 -6
46 c-13 100 -40 190 -84 276 -37 73 -63 107 -136 180 -99 99 -189 154 -320
195 -80 24 -249 35 -332 20z m208 -300 c183 -35 330 -186 360 -371 29 -175
-101 -1014 -231 -1493 -16 -59 -32 -111 -35 -114 -3 -3 -34 0 -69 6 -81 15
-145 15 -223 -1 l-62 -13 -30 110 c-76 275 -144 625 -196 1002 -45 328 -52
447 -32 534 55 233 285 384 518 340z m1 -2274 c105 -31 185 -118 209 -228 24
-113 -24 -231 -126 -303 -155 -111 -377 -40 -445 142 -85 228 130 459 362 389z
m-648 -482 c21 -66 77 -158 124 -207 l36 -37 -49 -51 c-308 -317 -966 -858
-1165 -959 -73 -37 -160 -54 -236 -46 -340 35 -520 397 -341 688 68 112 169
171 573 334 355 143 1013 356 1035 335 4 -3 14 -29 23 -57z m1658 -87 c431
-144 885 -336 984 -415 204 -164 229 -450 57 -652 -125 -146 -356 -189 -533
-100 -181 92 -751 563 -1075 889 l-119 121 30 32 c48 51 88 117 118 190 14 36
26 71 26 76 0 16 238 -50 512 -141z"/>
</g>
</svg>
