<?xml version="1.0" standalone="no"?>
<!DOCTYPE svg PUBLIC "-//W3C//DTD SVG 20010904//EN"
 "http://www.w3.org/TR/2001/REC-SVG-20010904/DTD/svg10.dtd">
<svg version="1.0" xmlns="http://www.w3.org/2000/svg"
 width="512.000000pt" height="512.000000pt" viewBox="0 0 512.000000 512.000000"
 preserveAspectRatio="xMidYMid meet">

<g transform="translate(0.000000,512.000000) scale(0.100000,-0.100000)"
fill="#000000" stroke="none">
<path d="M2504 4461 c-47 -29 -54 -63 -54 -275 l0 -191 -127 127 c-71 70 -141
132 -157 138 -67 25 -136 -27 -136 -103 0 -40 5 -46 210 -252 l210 -211 0 -84
-1 -85 -38 -18 c-67 -31 -84 -116 -32 -168 16 -16 39 -29 50 -29 20 0 21 -5
21 -115 l0 -114 -42 -12 c-63 -16 -127 -52 -191 -104 -32 -26 -61 -45 -65 -43
-5 2 -46 25 -93 51 l-85 49 0 50 c1 44 -3 53 -32 79 -41 36 -96 39 -137 7
l-27 -21 -54 29 c-92 50 -86 36 -163 332 -40 151 -77 282 -84 293 -18 29 -73
51 -107 44 -35 -8 -76 -47 -84 -81 -4 -16 10 -88 39 -194 25 -93 45 -173 45
-179 0 -6 -37 11 -82 38 -227 133 -262 151 -301 151 -57 0 -97 -43 -97 -103 0
-28 7 -52 18 -65 9 -12 89 -62 177 -113 88 -50 164 -95 168 -99 9 -8 -24 -19
-218 -70 -98 -25 -125 -37 -147 -61 -68 -73 -10 -180 92 -170 8 1 135 33 282
72 l268 71 67 -39 c68 -39 68 -39 69 -83 0 -56 25 -96 70 -110 37 -13 84 -3
114 25 14 12 26 8 105 -38 84 -50 90 -55 87 -82 -2 -17 -4 -82 -4 -145 0 -63
2 -128 4 -145 3 -27 -3 -32 -87 -82 -88 -51 -90 -52 -110 -33 -79 74 -190 20
-183 -89 l3 -45 -68 -39 -67 -39 -268 71 c-147 39 -274 71 -282 72 -41 4 -64
-4 -91 -30 -40 -40 -41 -98 -1 -140 23 -25 51 -36 182 -71 85 -22 164 -44 174
-49 16 -6 -14 -27 -153 -106 -122 -70 -179 -108 -193 -129 -26 -43 -18 -93 22
-129 53 -48 82 -40 275 72 94 54 171 98 173 96 2 -2 -17 -75 -42 -164 -25 -89
-46 -176 -46 -195 0 -71 77 -120 143 -92 20 8 42 27 50 43 8 15 47 149 87 298
39 148 72 270 73 271 1 0 34 19 73 41 l71 40 27 -24 c40 -34 99 -32 137 6 24
25 29 38 29 79 l0 50 89 51 c48 28 92 51 97 51 4 0 22 -13 39 -29 44 -43 142
-99 203 -117 l52 -15 0 -115 c0 -109 -1 -114 -21 -114 -11 0 -34 -13 -50 -29
-52 -52 -35 -137 32 -168 l38 -18 1 -85 0 -84 -210 -211 c-205 -206 -210 -212
-210 -252 0 -76 69 -128 136 -103 16 6 86 68 157 138 l127 127 0 -193 c0 -215
7 -250 59 -276 38 -20 64 -20 102 0 52 26 59 61 59 276 l0 192 133 -131 c143
-142 170 -157 226 -129 42 22 61 54 61 100 0 39 -7 47 -210 251 l-210 211 0
84 1 85 38 18 c67 31 84 116 32 168 -16 16 -39 29 -50 29 -20 0 -21 5 -21 115
l0 115 28 6 c56 14 149 62 204 107 31 26 59 47 63 47 3 0 45 -23 94 -51 l87
-52 0 -49 c-1 -44 3 -53 32 -79 39 -35 79 -38 132 -8 l38 21 68 -40 69 -40 69
-264 c38 -144 75 -278 84 -296 32 -70 126 -81 177 -20 24 28 26 38 22 83 -3
27 -23 116 -45 197 -39 141 -39 147 -19 136 12 -6 90 -51 174 -99 120 -71 159
-89 190 -89 84 1 134 98 83 163 -11 14 -97 70 -190 124 -92 54 -168 99 -167
100 2 1 79 23 172 48 144 39 174 51 198 76 67 73 9 180 -93 170 -8 -1 -135
-34 -282 -73 l-267 -70 -68 39 -68 39 3 45 c7 109 -104 163 -183 89 -20 -19
-22 -18 -110 34 -84 49 -90 55 -87 82 2 16 4 81 4 144 0 63 -2 128 -4 144 -3
27 3 33 86 82 89 52 90 52 113 34 36 -28 77 -34 116 -15 42 20 62 55 62 109 0
39 2 41 68 79 l68 39 267 -70 c147 -39 274 -72 282 -73 41 -4 64 4 91 30 40
40 41 98 2 140 -24 26 -52 37 -197 75 -92 25 -170 47 -172 49 -2 2 73 48 167
103 95 54 179 110 188 123 8 14 16 42 16 64 0 31 -7 45 -33 68 -56 50 -83 43
-277 -70 -94 -54 -171 -98 -173 -96 -2 2 17 75 42 164 25 89 46 177 46 195 0
98 -141 142 -194 61 -8 -13 -42 -126 -76 -251 -97 -365 -79 -323 -157 -367
l-67 -38 -37 20 c-20 12 -49 21 -63 21 -66 0 -114 -57 -103 -123 5 -32 3 -33
-85 -85 -49 -28 -95 -52 -102 -52 -7 0 -23 12 -37 26 -38 42 -131 99 -193 118
l-56 18 0 114 c0 109 1 114 21 114 11 0 34 13 50 29 52 52 32 148 -36 172
l-35 13 0 85 0 85 210 211 c205 206 210 212 210 252 0 76 -69 128 -136 103
-16 -6 -86 -68 -156 -138 l-128 -127 0 193 c0 215 -7 250 -59 276 -40 21 -69
20 -107 -3z m192 -1613 c237 -111 245 -440 14 -567 -59 -32 -72 -36 -145 -36
-66 0 -90 5 -136 26 -181 85 -241 302 -129 470 81 124 259 172 396 107z"/>
</g>
</svg>
