<?xml version="1.0" encoding="utf-8"?>
<!-- Generator: Adobe Illustrator 24.0.1, SVG Export Plug-In . SVG Version: 6.00 Build 0)  -->
<svg version="1.1" id="Layer_1" xmlns="http://www.w3.org/2000/svg" xmlns:xlink="http://www.w3.org/1999/xlink" x="0px" y="0px"
	 viewBox="0 0 56.69 56.69" style="enable-background:new 0 0 56.69 56.69;" xml:space="preserve">
<style type="text/css">
	.st0{fill:#8f9bb3;}
</style>
<g>
	<g>
		<path class="st0" d="M22.65,46.99c0,0.01,0,0.01,0,0.02c0.05,0.01,0.09,0.02,0.14,0.02c0.42,0,0.84,0.01,1.26,0.01
			c0.27,0,0.54,0,0.82-0.01c0.13,0,0.27-0.02,0.4-0.04c0.24-0.05,0.47-0.11,0.67-0.24c0.1-0.06,0.2-0.14,0.29-0.22
			c0.1-0.1,0.18-0.22,0.28-0.34c0.11-0.13,0.22-0.26,0.33-0.39c0.12-0.15,0.24-0.3,0.36-0.45c0.11-0.13,0.22-0.26,0.33-0.39
			c0.11-0.13,0.21-0.26,0.32-0.4c0.11-0.13,0.22-0.26,0.32-0.39c0.12-0.15,0.24-0.3,0.36-0.45c0.11-0.13,0.22-0.26,0.33-0.39
			c0.12-0.15,0.24-0.3,0.36-0.45c0.11-0.13,0.22-0.26,0.33-0.39c0.11-0.13,0.22-0.27,0.33-0.4c0.09-0.11,0.18-0.22,0.27-0.33
			c0.09-0.11,0.18-0.22,0.27-0.33c0.09-0.11,0.17-0.21,0.26-0.32c0.09-0.11,0.18-0.22,0.27-0.33c0.08-0.1,0.16-0.2,0.24-0.31
			c0.15-0.19,0.3-0.38,0.46-0.56c0.15-0.16,0.31-0.3,0.47-0.44c0.14-0.12,0.29-0.23,0.44-0.34c0.09-0.06,0.18-0.12,0.27-0.18
			c0,0,0-0.01,0-0.01c-0.02,0-0.04,0-0.06,0c-0.75,0-1.49,0-2.24,0c-0.21,0-0.4,0.05-0.58,0.13c-0.31,0.14-0.58,0.34-0.82,0.58
			c-0.11,0.1-0.21,0.21-0.31,0.32c-0.09,0.1-0.17,0.2-0.25,0.3c-0.09,0.11-0.17,0.22-0.26,0.33c-0.09,0.11-0.19,0.22-0.28,0.34
			c-0.12,0.15-0.24,0.3-0.36,0.44c-0.13,0.15-0.25,0.3-0.38,0.46c-0.12,0.15-0.25,0.31-0.37,0.46c-0.12,0.15-0.25,0.3-0.37,0.45
			c-0.11,0.13-0.21,0.26-0.32,0.39c-0.13,0.15-0.26,0.3-0.38,0.46c-0.15,0.19-0.3,0.37-0.45,0.56c-0.14,0.18-0.29,0.36-0.43,0.54
			c-0.15,0.2-0.31,0.4-0.46,0.6c-0.12,0.15-0.23,0.31-0.35,0.46c-0.15,0.19-0.3,0.37-0.46,0.55c-0.06,0.07-0.13,0.13-0.2,0.19
			c-0.08,0.07-0.17,0.15-0.26,0.21c-0.13,0.1-0.28,0.19-0.44,0.25C22.74,46.96,22.69,46.97,22.65,46.99z M18.49,46.99
			c0,0,0,0.01,0,0.01c0.05,0.01,0.1,0.02,0.15,0.02c0.41,0,0.82,0.01,1.23,0.01c0.28,0,0.56,0,0.83-0.01
			c0.18-0.01,0.36-0.04,0.54-0.08c0.21-0.04,0.41-0.12,0.59-0.24c0.12-0.08,0.23-0.17,0.32-0.29c0.1-0.14,0.22-0.26,0.32-0.39
			c0.12-0.15,0.24-0.3,0.36-0.45c0.09-0.11,0.19-0.22,0.28-0.34c0.12-0.15,0.24-0.3,0.36-0.45c0.11-0.13,0.22-0.26,0.33-0.39
			c0.12-0.15,0.24-0.3,0.36-0.45c0.11-0.13,0.22-0.26,0.33-0.39c0.11-0.13,0.21-0.26,0.32-0.39c0.11-0.13,0.22-0.26,0.33-0.39
			c0.11-0.13,0.22-0.27,0.32-0.4c0.09-0.11,0.18-0.21,0.27-0.32c0.1-0.13,0.2-0.25,0.31-0.38c0.11-0.13,0.22-0.26,0.33-0.39
			c0.12-0.15,0.24-0.3,0.36-0.45c0.09-0.11,0.17-0.22,0.26-0.33c0.16-0.2,0.32-0.41,0.49-0.6c0.15-0.16,0.31-0.3,0.47-0.44
			c0.2-0.18,0.42-0.34,0.65-0.48c0.02-0.01,0.05-0.03,0.07-0.05c0,0,0-0.01-0.01-0.01c-0.02,0-0.04,0-0.06,0c-0.74,0-1.49,0-2.23,0
			c-0.21,0-0.4,0.05-0.59,0.13c-0.31,0.14-0.57,0.34-0.81,0.57c-0.14,0.13-0.26,0.27-0.38,0.41c-0.11,0.13-0.22,0.26-0.33,0.39
			c-0.11,0.13-0.21,0.26-0.32,0.39c-0.11,0.13-0.22,0.26-0.33,0.39c-0.11,0.13-0.21,0.26-0.32,0.39c-0.09,0.11-0.19,0.22-0.28,0.34
			c-0.11,0.13-0.21,0.26-0.32,0.4c-0.11,0.13-0.22,0.26-0.32,0.39c-0.11,0.13-0.21,0.26-0.32,0.4c-0.08,0.1-0.16,0.19-0.23,0.29
			c-0.08,0.1-0.17,0.21-0.26,0.31c-0.09,0.11-0.19,0.22-0.28,0.34c-0.1,0.12-0.19,0.24-0.29,0.36c-0.05,0.07-0.11,0.14-0.17,0.22
			c0.44,0,0.87,0,1.31,0c0,0.01,0,0.02-0.01,0.02c-0.14,0.18-0.28,0.36-0.42,0.55c-0.14,0.18-0.27,0.36-0.4,0.53
			c-0.04,0.05-0.08,0.08-0.16,0.08c-0.39-0.01-0.78,0-1.17,0c-0.04,0-0.06,0.01-0.08,0.04c-0.11,0.13-0.22,0.27-0.34,0.4
			c-0.14,0.14-0.29,0.28-0.44,0.4c-0.14,0.11-0.28,0.21-0.45,0.27C18.6,46.95,18.55,46.97,18.49,46.99z M28.45,45.08
			c0.13-0.07,0.25-0.14,0.37-0.2c0.32-0.15,0.65-0.21,1-0.24c0.14-0.01,0.27-0.01,0.41-0.01c0.26,0,0.51-0.01,0.77-0.01
			c0.33,0,0.65-0.01,0.98-0.01c0.16,0,0.33-0.01,0.49-0.01c0.18,0,0.35-0.01,0.53-0.01c0.18,0,0.37-0.01,0.55-0.01
			c0.07,0,0.14,0,0.22-0.01c0.19-0.02,0.37-0.04,0.56-0.05c0.14-0.01,0.27-0.03,0.41-0.04c0.2-0.03,0.41-0.06,0.61-0.1
			c0.24-0.05,0.47-0.09,0.7-0.15c0.31-0.08,0.6-0.21,0.87-0.39c0.21-0.14,0.41-0.3,0.59-0.47c0.19-0.18,0.37-0.37,0.52-0.59
			c0.13-0.2,0.24-0.4,0.33-0.63c0.1-0.26,0.16-0.53,0.18-0.8c0.01-0.11,0.01-0.22,0-0.33c-0.01-0.16-0.02-0.32-0.05-0.48
			c-0.06-0.33-0.2-0.63-0.43-0.89c-0.2-0.23-0.44-0.4-0.71-0.52c-0.07-0.03-0.13-0.05-0.2-0.08c0,0.02,0.01,0.02,0.01,0.03
			c0.07,0.06,0.14,0.11,0.2,0.18c0.19,0.2,0.26,0.44,0.28,0.7c0.01,0.1,0.01,0.2,0,0.3c-0.01,0.13-0.03,0.26-0.06,0.39
			c-0.05,0.21-0.14,0.41-0.25,0.6c-0.16,0.26-0.36,0.49-0.6,0.68c-0.18,0.14-0.38,0.27-0.6,0.35c-0.15,0.06-0.31,0.12-0.47,0.16
			c-0.25,0.07-0.52,0.09-0.78,0.11c-0.12,0.01-0.25,0.01-0.37,0.01c-0.15,0-0.3-0.01-0.46-0.01c-0.43,0-0.87-0.01-1.3-0.01
			c-0.16,0-0.32-0.01-0.48-0.01c-0.19,0-0.39,0.01-0.58,0.02c-0.13,0.01-0.25,0.01-0.37,0.03c-0.21,0.03-0.43,0.08-0.63,0.16
			c-0.23,0.09-0.44,0.22-0.62,0.4c-0.12,0.12-0.23,0.26-0.34,0.39c-0.11,0.13-0.21,0.26-0.32,0.39c-0.11,0.13-0.22,0.26-0.33,0.39
			c-0.13,0.15-0.25,0.31-0.38,0.47C28.61,44.88,28.53,44.98,28.45,45.08z M36.4,41.8c0.17-0.12,0.32-0.26,0.45-0.41
			c0.16-0.19,0.3-0.39,0.39-0.62c0.09-0.21,0.15-0.44,0.16-0.67c0.01-0.13-0.01-0.26-0.02-0.39c-0.02-0.22-0.1-0.42-0.23-0.6
			c-0.02-0.03-0.05-0.05-0.08-0.06c-0.38-0.14-0.78-0.18-1.18-0.2c-0.22-0.01-0.43,0-0.65,0.01c-0.16,0.01-0.33,0.02-0.49,0.04
			c-0.15,0.02-0.31,0.05-0.46,0.08c-0.24,0.05-0.48,0.13-0.69,0.26c-0.15,0.1-0.3,0.2-0.44,0.31c-0.22,0.18-0.37,0.41-0.54,0.64
			c-0.17,0.23-0.33,0.45-0.5,0.68c-0.04,0.06-0.08,0.11-0.12,0.17c0.07-0.01,0.13-0.04,0.19-0.06c0.3-0.11,0.6-0.18,0.92-0.22
			c0.19-0.02,0.38-0.05,0.57-0.06c0.14-0.01,0.28-0.02,0.43-0.02c0.12-0.01,0.25-0.01,0.37-0.01c0.25,0,0.5,0.01,0.75,0.02
			c0.15,0.01,0.29,0.03,0.43,0.07c0.25,0.06,0.47,0.15,0.63,0.36c0.11,0.14,0.14,0.3,0.15,0.47C36.43,41.66,36.41,41.73,36.4,41.8z
			 M18.57,44.64c0.01,0,0.01,0.01,0.02,0.01c0.43,0,0.86,0,1.29,0c0.01,0,0.03-0.01,0.04-0.02c0.04-0.05,0.08-0.1,0.12-0.16
			c0.12-0.16,0.24-0.31,0.36-0.47c0.1-0.13,0.21-0.27,0.31-0.4c0.03-0.04,0.07-0.09,0.1-0.14c-0.44,0-0.87,0-1.3,0
			c-0.01,0-0.03,0.01-0.04,0.02c-0.11,0.14-0.22,0.28-0.32,0.42c-0.1,0.13-0.21,0.27-0.31,0.4C18.75,44.41,18.66,44.52,18.57,44.64z
			 M18.2,42.28c0.34,0,0.66,0,0.99,0c0.01,0,0.03-0.01,0.04-0.02c0.05-0.06,0.1-0.13,0.15-0.19c0.14-0.19,0.29-0.37,0.43-0.56
			c0.03-0.04,0.06-0.08,0.1-0.14c-0.34,0-0.66,0-0.98,0c-0.02,0-0.04,0.01-0.05,0.03c-0.04,0.05-0.08,0.1-0.12,0.16
			c-0.1,0.14-0.21,0.27-0.31,0.41C18.36,42.07,18.29,42.17,18.2,42.28z"/>
		<path class="st0" d="M22.65,46.99c0.05-0.02,0.1-0.03,0.14-0.05c0.16-0.06,0.3-0.15,0.44-0.25c0.09-0.07,0.17-0.14,0.26-0.21
			c0.07-0.06,0.14-0.12,0.2-0.19c0.16-0.18,0.31-0.36,0.46-0.55c0.12-0.15,0.24-0.3,0.35-0.46c0.15-0.2,0.3-0.4,0.46-0.6
			c0.14-0.18,0.29-0.36,0.43-0.54c0.15-0.19,0.3-0.38,0.45-0.56c0.13-0.15,0.25-0.3,0.38-0.46c0.11-0.13,0.21-0.26,0.32-0.39
			c0.12-0.15,0.25-0.3,0.37-0.45c0.12-0.15,0.25-0.31,0.37-0.46c0.13-0.15,0.26-0.3,0.38-0.46c0.12-0.15,0.24-0.3,0.36-0.44
			c0.09-0.11,0.19-0.23,0.28-0.34c0.09-0.11,0.17-0.22,0.26-0.33c0.08-0.1,0.17-0.2,0.25-0.3c0.1-0.11,0.2-0.22,0.31-0.32
			c0.24-0.23,0.51-0.44,0.82-0.58c0.18-0.08,0.38-0.13,0.58-0.13c0.75,0,1.49,0,2.24,0c0.02,0,0.04,0,0.06,0c0,0,0,0.01,0,0.01
			c-0.09,0.06-0.18,0.11-0.27,0.18c-0.15,0.11-0.3,0.22-0.44,0.34c-0.16,0.14-0.33,0.28-0.47,0.44c-0.16,0.18-0.31,0.37-0.46,0.56
			c-0.08,0.1-0.16,0.2-0.24,0.31c-0.09,0.11-0.18,0.22-0.27,0.33c-0.09,0.11-0.17,0.21-0.26,0.32c-0.09,0.11-0.18,0.22-0.27,0.33
			c-0.09,0.11-0.18,0.22-0.27,0.33c-0.11,0.13-0.22,0.27-0.33,0.4c-0.11,0.13-0.22,0.26-0.33,0.39c-0.12,0.15-0.24,0.3-0.36,0.45
			c-0.11,0.13-0.22,0.26-0.33,0.39c-0.12,0.15-0.24,0.3-0.36,0.45c-0.11,0.13-0.22,0.26-0.32,0.39c-0.11,0.13-0.21,0.26-0.32,0.4
			c-0.11,0.13-0.22,0.26-0.33,0.39c-0.12,0.15-0.24,0.3-0.36,0.45c-0.11,0.13-0.22,0.26-0.33,0.39c-0.09,0.11-0.17,0.23-0.28,0.34
			c-0.08,0.09-0.18,0.16-0.29,0.22c-0.21,0.12-0.44,0.19-0.67,0.24c-0.13,0.03-0.27,0.04-0.4,0.04c-0.27,0.01-0.54,0.01-0.82,0.01
			c-0.42,0-0.84-0.01-1.26-0.01c-0.05,0-0.09-0.01-0.14-0.02C22.65,47,22.65,46.99,22.65,46.99z"/>
		<path class="st0" d="M18.49,46.99c0.06-0.02,0.11-0.04,0.17-0.06c0.17-0.06,0.31-0.16,0.45-0.27c0.15-0.13,0.3-0.26,0.44-0.4
			c0.12-0.12,0.23-0.26,0.34-0.4c0.02-0.03,0.05-0.04,0.08-0.04c0.39,0,0.78,0,1.17,0c0.07,0,0.12-0.03,0.16-0.08
			c0.13-0.18,0.27-0.36,0.4-0.53c0.14-0.18,0.28-0.36,0.42-0.55c0,0,0-0.01,0.01-0.02c-0.43,0-0.86,0-1.31,0
			c0.06-0.08,0.11-0.15,0.17-0.22c0.1-0.12,0.19-0.24,0.29-0.36c0.09-0.11,0.19-0.23,0.28-0.34c0.09-0.1,0.17-0.21,0.26-0.31
			c0.08-0.1,0.16-0.19,0.23-0.29c0.11-0.13,0.21-0.26,0.32-0.4c0.11-0.13,0.22-0.26,0.32-0.39c0.11-0.13,0.21-0.26,0.32-0.4
			c0.09-0.11,0.19-0.22,0.28-0.34c0.11-0.13,0.21-0.26,0.32-0.39c0.11-0.13,0.22-0.26,0.33-0.39c0.11-0.13,0.21-0.26,0.32-0.39
			c0.11-0.13,0.21-0.26,0.33-0.39c0.12-0.14,0.25-0.28,0.38-0.41c0.24-0.23,0.51-0.43,0.81-0.57c0.19-0.08,0.38-0.13,0.59-0.13
			c0.74,0,1.49,0,2.23,0c0.02,0,0.04,0,0.06,0c0,0,0,0.01,0.01,0.01c-0.02,0.02-0.05,0.03-0.07,0.05c-0.23,0.14-0.45,0.3-0.65,0.48
			c-0.16,0.14-0.33,0.29-0.47,0.44c-0.17,0.19-0.33,0.4-0.49,0.6c-0.09,0.11-0.17,0.22-0.26,0.33c-0.12,0.15-0.24,0.3-0.36,0.45
			c-0.11,0.13-0.22,0.26-0.33,0.39c-0.1,0.13-0.2,0.25-0.31,0.38c-0.09,0.11-0.18,0.21-0.27,0.32c-0.11,0.13-0.22,0.27-0.32,0.4
			c-0.11,0.13-0.22,0.26-0.33,0.39c-0.11,0.13-0.21,0.26-0.32,0.39c-0.11,0.13-0.22,0.26-0.33,0.39c-0.12,0.15-0.24,0.3-0.36,0.45
			c-0.11,0.13-0.22,0.26-0.33,0.39c-0.12,0.15-0.24,0.3-0.36,0.45c-0.09,0.11-0.19,0.22-0.28,0.34c-0.12,0.15-0.24,0.3-0.36,0.45
			c-0.11,0.13-0.22,0.26-0.32,0.39c-0.09,0.12-0.19,0.21-0.32,0.29c-0.18,0.11-0.38,0.19-0.59,0.24c-0.18,0.04-0.36,0.07-0.54,0.08
			c-0.28,0.01-0.55,0.01-0.83,0.01c-0.41,0-0.82-0.01-1.23-0.01c-0.05,0-0.1-0.01-0.15-0.02C18.49,47,18.49,47,18.49,46.99z"/>
		<path class="st0" d="M28.45,45.08c0.08-0.1,0.16-0.2,0.24-0.3c0.13-0.16,0.25-0.31,0.38-0.47c0.11-0.13,0.22-0.26,0.33-0.39
			c0.11-0.13,0.21-0.26,0.32-0.39c0.11-0.13,0.22-0.27,0.34-0.39c0.17-0.18,0.39-0.3,0.62-0.4c0.2-0.08,0.41-0.13,0.63-0.16
			c0.12-0.02,0.25-0.03,0.37-0.03c0.19-0.01,0.39-0.02,0.58-0.02c0.16,0,0.32,0.01,0.48,0.01c0.43,0,0.87,0.01,1.3,0.01
			c0.15,0,0.3,0.01,0.46,0.01c0.12,0,0.25,0,0.37-0.01c0.26-0.02,0.52-0.04,0.78-0.11c0.16-0.04,0.32-0.1,0.47-0.16
			c0.22-0.09,0.41-0.21,0.6-0.35c0.24-0.19,0.44-0.42,0.6-0.68c0.11-0.19,0.2-0.39,0.25-0.6c0.03-0.13,0.05-0.26,0.06-0.39
			c0.01-0.1,0.01-0.2,0-0.3c-0.02-0.26-0.1-0.51-0.28-0.7c-0.06-0.06-0.13-0.12-0.2-0.18c-0.01,0-0.01-0.01-0.01-0.03
			c0.07,0.03,0.13,0.05,0.2,0.08c0.28,0.12,0.52,0.3,0.71,0.52c0.23,0.25,0.37,0.56,0.43,0.89c0.03,0.16,0.04,0.32,0.05,0.48
			c0.01,0.11,0.01,0.22,0,0.33c-0.02,0.27-0.08,0.54-0.18,0.8c-0.09,0.22-0.2,0.43-0.33,0.63c-0.15,0.22-0.33,0.41-0.52,0.59
			c-0.19,0.17-0.38,0.33-0.59,0.47c-0.27,0.17-0.56,0.31-0.87,0.39c-0.23,0.06-0.47,0.11-0.7,0.15c-0.2,0.04-0.4,0.07-0.61,0.1
			c-0.14,0.02-0.27,0.03-0.41,0.04c-0.19,0.02-0.37,0.04-0.56,0.05c-0.07,0.01-0.14,0.01-0.22,0.01c-0.18,0-0.37,0.01-0.55,0.01
			c-0.18,0-0.35,0.01-0.53,0.01c-0.16,0-0.33,0.01-0.49,0.01c-0.33,0-0.65,0.01-0.98,0.01c-0.26,0-0.51,0.01-0.77,0.01
			c-0.14,0-0.28,0-0.41,0.01c-0.34,0.03-0.68,0.09-1,0.24C28.7,44.95,28.58,45.02,28.45,45.08z"/>
		<path class="st0" d="M36.4,41.8c0.01-0.07,0.03-0.14,0.03-0.2c0-0.17-0.04-0.33-0.15-0.47c-0.16-0.21-0.39-0.3-0.63-0.36
			c-0.14-0.03-0.29-0.06-0.43-0.07c-0.25-0.02-0.5-0.02-0.75-0.02c-0.12,0-0.25,0.01-0.37,0.01c-0.14,0.01-0.28,0.01-0.43,0.02
			c-0.19,0.02-0.38,0.04-0.57,0.06c-0.31,0.04-0.62,0.11-0.92,0.22c-0.06,0.02-0.12,0.05-0.19,0.06c0.04-0.06,0.08-0.11,0.12-0.17
			c0.17-0.23,0.33-0.45,0.5-0.68c0.17-0.23,0.32-0.46,0.54-0.64c0.14-0.11,0.29-0.21,0.44-0.31c0.21-0.13,0.45-0.21,0.69-0.26
			c0.15-0.03,0.31-0.06,0.46-0.08c0.16-0.02,0.33-0.04,0.49-0.04c0.22-0.01,0.43-0.02,0.65-0.01c0.4,0.01,0.8,0.05,1.18,0.2
			c0.03,0.01,0.07,0.03,0.08,0.06c0.13,0.18,0.21,0.38,0.23,0.6c0.01,0.13,0.03,0.26,0.02,0.39c-0.01,0.23-0.07,0.45-0.16,0.67
			c-0.1,0.23-0.23,0.43-0.39,0.62C36.72,41.55,36.57,41.68,36.4,41.8z"/>
		<path class="st0" d="M18.57,44.64c0.09-0.12,0.17-0.23,0.26-0.34c0.1-0.13,0.21-0.27,0.31-0.4c0.11-0.14,0.22-0.28,0.32-0.42
			c0.01-0.01,0.03-0.02,0.04-0.02c0.43,0,0.86,0,1.3,0c-0.04,0.05-0.07,0.1-0.1,0.14c-0.1,0.13-0.21,0.27-0.31,0.4
			c-0.12,0.16-0.24,0.31-0.36,0.47c-0.04,0.05-0.08,0.11-0.12,0.16c-0.01,0.01-0.03,0.02-0.04,0.02c-0.43,0-0.86,0-1.29,0
			C18.59,44.64,18.59,44.64,18.57,44.64z"/>
		<path class="st0" d="M18.2,42.28c0.08-0.11,0.16-0.21,0.24-0.31c0.1-0.14,0.21-0.27,0.31-0.41c0.04-0.05,0.08-0.11,0.12-0.16
			c0.01-0.01,0.03-0.03,0.05-0.03c0.32,0,0.65,0,0.98,0c-0.04,0.05-0.06,0.09-0.1,0.14c-0.14,0.19-0.29,0.37-0.43,0.56
			c-0.05,0.07-0.1,0.13-0.15,0.19c-0.01,0.01-0.02,0.02-0.04,0.02C18.87,42.28,18.54,42.28,18.2,42.28z"/>
	</g>
</g>
<g>
	<g>
		<g>
			<g>
				<path class="st0" d="M37.68,13.47c-2.75-3.51-5.59-7.13-7.88-11.02c-0.3-0.51-0.85-0.83-1.45-0.83S27.2,1.94,26.9,2.45
					c-2.29,3.89-5.13,7.51-7.88,11.02c-5.57,7.1-10.83,13.81-10.83,21.75c0,11.12,9.04,20.16,20.16,20.16s20.16-9.04,20.16-20.16
					C48.51,27.28,43.25,20.57,37.68,13.47z M28.35,52.02c-9.26,0-16.8-7.54-16.8-16.8c0-6.78,4.91-13.05,10.12-19.68
					c2.27-2.9,4.6-5.87,6.68-9.05c2.08,3.19,4.41,6.16,6.68,9.06c5.2,6.63,10.12,12.9,10.12,19.68
					C45.15,44.48,37.61,52.02,28.35,52.02z"/>
			</g>
		</g>
	</g>
</g>
<g>
	<g>
		<g>
			<path class="st0" d="M26,18.18c-1.81,0-3.29,1.48-3.29,3.29s1.48,3.29,3.29,3.29c1.81,0,3.29-1.48,3.29-3.29
				S27.81,18.18,26,18.18z M26,22.57c-0.61,0-1.1-0.49-1.1-1.1c0-0.61,0.49-1.1,1.1-1.1s1.1,0.49,1.1,1.1
				C27.1,22.08,26.61,22.57,26,22.57z"/>
		</g>
	</g>
	<g>
		<g>
			<path class="st0" d="M30.95,27.92c-1.81,0-3.29,1.48-3.29,3.29s1.48,3.29,3.29,3.29s3.29-1.48,3.29-3.29S32.76,27.92,30.95,27.92
				z M30.95,32.31c-0.6,0-1.1-0.49-1.1-1.1c0-0.6,0.49-1.1,1.1-1.1c0.6,0,1.1,0.49,1.1,1.1C32.04,31.81,31.55,32.31,30.95,32.31z"/>
		</g>
	</g>
	<g>
		<g>
			<path class="st0" d="M34.63,20.18c-0.43-0.43-1.12-0.43-1.55,0L22.11,31.15c-0.43,0.43-0.43,1.12,0,1.55
				c0.21,0.21,0.5,0.32,0.78,0.32s0.56-0.11,0.77-0.32l10.97-10.97C35.05,21.3,35.05,20.61,34.63,20.18z"/>
		</g>
	</g>
</g>
</svg>
