<?xml version="1.0" standalone="yes"?>
<svg xmlns="http://www.w3.org/2000/svg" width="512" height="512">
<path style="fill:#ffffff; stroke:none;" d="M0 0L0 249L1 249C3.10943 241.882 8.21688 236.047 15 232.916C22.564 229.424 31.8785 230 40 230C59.4313 230 90.1435 228.313 90.1435 256C90.1435 284.224 59.4343 281 40 281C32.4045 281 23.1738 282.415 16 279.518C8.75115 276.59 3.20249 270.432 1 263L0 263L0 512L249 512L249 511C241.882 508.891 236.047 503.783 232.916 497C229.424 489.436 230 480.122 230 472C230 452.569 228.313 421.856 256 421.856C283.687 421.856 282 452.569 282 472C282 480.122 282.576 489.436 279.084 497C275.953 503.783 270.118 508.891 263 511L263 512L512 512L512 263L511 263C508.798 270.432 503.249 276.59 496 279.518C488.826 282.415 479.595 281 472 281C452.566 281 421.856 284.224 421.856 256C421.856 228.313 452.569 230 472 230C480.122 230 489.436 229.424 497 232.916C503.783 236.047 508.891 241.882 511 249L512 249L512 0L263 0L263 1C270.118 3.10941 275.953 8.21689 279.084 15C282.576 22.564 282 31.8785 282 40C282 59.4313 283.687 90.1435 256 90.1435C228.313 90.1435 230 59.4313 230 40C230 31.8784 229.424 22.564 232.916 15C236.047 8.21683 241.882 3.10944 249 1L226 0L176 0L0 0z"/>
<path style="fill:#010101; stroke:none;" d="M249 0.529327C241.279 2.31363 234.692 8.57065 232.109 16C229.59 23.2435 230 31.4541 230 39C230 60.6541 229.842 97.8963 263 89.4853C281.707 84.7399 282 65.7243 282 50C282 28.0888 281.669 -7.02039 249 0.529327M89 67.4653C73.5759 70.1718 63.1287 85.7714 68.5486 101C71.6236 109.64 78.6963 115.696 85 122C96.972 133.972 108.134 148.987 127 145.671C141.803 143.07 149.145 126.63 145.211 113C143.107 105.713 137.188 100.196 132 95C120.833 83.815 107.196 64.2723 89 67.4653M416 67.4406C400.814 69.8125 390.216 84.7673 380 95C374.812 100.196 368.893 105.713 366.789 113C361.16 132.503 376.785 148.215 396 145.815C403.243 144.91 408.971 139.889 414 134.985C424.204 125.035 440.376 113.442 443.957 99C448.172 81.9984 433.864 64.6505 416 67.4406M251 127.424C217.898 131.768 188.499 140.32 164.285 165.17C96.4463 234.79 128.541 353.849 222 380.29C238.067 384.836 255.509 385.688 272 383.715C335.713 376.091 384.971 320.185 384.971 256C384.971 188.47 322.648 118.022 251 127.424M25 230.425C2.8101 233.447 -11.4861 261.444 10.0394 276.776C16.7532 281.558 24.166 281 32 281C44.5201 281 58.6651 282.838 71 280.671C90.9322 277.17 96.9938 249.172 81.9066 236.529C69.2683 225.939 40.4488 228.321 25 230.425M446 230.428C424.681 233.489 410.9 261.12 431.04 276.211C442.347 284.683 461.638 281 475 281C480.856 281 487.217 281.688 493 280.671C513.625 277.047 518.524 248.164 502.91 235.928C490.257 226.013 461.199 228.246 446 230.428M114 366.529C106.708 368.214 101.116 373.91 96 379.001C86.047 388.906 70.9757 399.621 67.6806 414C63.578 431.902 80.3792 447.984 98 444.181C112.402 441.072 123.115 425.932 132.999 416C138.09 410.884 143.786 405.292 145.471 398C150.014 378.341 133.659 361.986 114 366.529M384 366.529C369.543 369.87 362.449 386.536 367.109 400C369.769 407.685 376.418 413.417 382 419C393.428 430.429 406.499 448.588 425 444.1C440.102 440.437 448.618 424.635 443.046 410C439.94 401.843 433.009 396.009 427 390C414.992 377.992 403.109 362.113 384 366.529M255 421.598C231.065 422.718 230 445.572 230 464C230 485.725 229.62 513.398 259 511.96C268.068 511.516 276.13 505.378 279.518 497C282.633 489.298 282 480.132 282 472C282 452.113 283.965 420.242 255 421.598z"/>
</svg>
