<svg id="Layer_1" data-name="Layer 1" xmlns="http://www.w3.org/2000/svg" viewBox="0 0 24 24">
    <defs>
        <style>
            .cls-1,.cls-2,.cls-4{fill:none;}.cls-2,.cls-4{stroke:#00d68f;stroke-miterlimit:10;}.cls-2{stroke-width:1.5px;}.cls-3{fill:#00d68f;}.cls-4{stroke-width:1.3px;}
        </style>
    </defs>
    <title>
        System_icon_green
    </title><rect class="cls-1" width="24" height="24"/>
    <path class="cls-2" d="M21,22.12H3.11a2.32,2.32,0,0,1-2.34-2.3h0V4.62a2.32,2.32,0,0,1,2.3-2.34H20.89a2.32,2.32,0,0,1,2.35,2.29h0V19.78a2.21,2.21,0,0,1-2,2.34Z"/>
    <path class="cls-3" d="M15,4.54a1,1,0,1,1-1-1A1,1,0,0,1,15,4.54Z"/>
    <polyline class="cls-4" points="19.22 11.83 19.22 11.23 19.21 10.46 19.21 10.37 19.18 10.26 19.14 10.17 19.08 10.07 19 9.99 18.9 9.92 18.79 9.86 18.7 9.84 18.57 9.82 18.14 9.82 17.92 9.82 17.3 9.83 16.96 9.82 16.43 9.82"/>
    <path class="cls-3" d="M3.53,9.82A1.25,1.25,0,0,1,4.78,8.57,1.27,1.27,0,0,1,6,9.83a1.25,1.25,0,0,1-1.26,1.24A1.23,1.23,0,0,1,3.53,9.83Z"/>
    <path class="cls-3" d="M18,12.08a1.25,1.25,0,1,1,1.25,1.25h0A1.26,1.26,0,0,1,18,12.08"/>
    <path class="cls-3" d="M10.31,19.21a1.25,1.25,0,1,1,1.25,1.25h0A1.25,1.25,0,0,1,10.31,19.21Z"/>
    <polyline class="cls-4" points="4.78 10.34 4.78 10.94 4.78 11.72 4.79 11.8 4.81 11.9 4.85 12 4.91 12.1 4.99 12.19 5.09 12.26 5.2 12.31 5.29 12.34 5.43 12.35 5.85 12.35 6.07 12.35 6.69 12.35 7.03 12.36 7.5 12.36"/>
    <path class="cls-3" d="M10.34,10l.65.71a.91.91,0,0,1-.9.45,1.09,1.09,0,0,1-.61-1.34c.14-.63.64-1.07,1.11-1a1,1,0,0,1,.66,1Z"/>
    <path class="cls-3" d="M13.6,10l.65.71a.91.91,0,0,1-.9.45,1.07,1.07,0,0,1-.61-1.34c.14-.63.64-1.07,1.12-1a1,1,0,0,1,.64,1Z"/>
    <path class="cls-3" d="M15.05,17A1.25,1.25,0,0,1,16.3,15.7a1.25,1.25,0,1,1,0,2.5A1.25,1.25,0,0,1,15.05,17Z"/>
    <path class="cls-4" d="M12,7.25V6.49a1.65,1.65,0,0,1,.75-1.21l.82-.49"/>
    <path class="cls-4" d="M10,14.77v2a.44.44,0,0,0,.44.44h.69a.44.44,0,0,1,.44.44v.52"/>
    <path class="cls-4" d="M13.66,14.77v1.76a.44.44,0,0,0,.44.44h1.68"/>
    <rect class="cls-4" x="7.58" y="7.28" width="8.78" height="7.46" rx="1.32"/>
</svg>