<svg id="Layer_1" data-name="Layer 1" xmlns="http://www.w3.org/2000/svg" viewBox="0 0 24 24">
    <defs>
        <style>
            .cls-1,.cls-2{fill:none;}.cls-2{stroke:#ececec;stroke-miterlimit:10;stroke-width:1.5px;}.cls-3{fill:#ececec;}
        </style>
    </defs>
    <title>
        WiFi_icon_gray
    </title>
    <rect class="cls-1" width="24" height="24"/>
    <path class="cls-2" d="M21,22.12H3.11a2.32,2.32,0,0,1-2.34-2.3h0V4.62a2.32,2.32,0,0,1,2.3-2.34H20.89a2.32,2.32,0,0,1,2.35,2.29h0V19.78a2.21,2.21,0,0,1-2,2.34Z"/>
    <circle class="cls-3" cx="11.97" cy="18.53" r="0.93"/>
    <path class="cls-3" d="M12,13.87a4.57,4.57,0,0,0-3.23,1.3.93.93,0,1,0,1.29,1.34,2.88,2.88,0,0,1,3.88,0,.93.93,0,0,0,1.3-1.34h0A4.61,4.61,0,0,0,12,13.87Z"/>
    <path class="cls-3" d="M12,9.2a8.37,8.37,0,0,0-6,2.57.94.94,0,0,0,1.34,1.29h0a6.53,6.53,0,0,1,9.21-.17l.16.17a.94.94,0,0,0,.66.28.92.92,0,0,0,.93-.91v0a.93.93,0,0,0-.25-.63A8.34,8.34,0,0,0,12,9.2Z"/>
    <path class="cls-3" d="M21,8.2a13.06,13.06,0,0,0-18.12,0A.94.94,0,0,0,3,9.52a.93.93,0,0,0,1.18,0,11.19,11.19,0,0,1,15.55,0,.9.9,0,0,0,.64.26,1,1,0,0,0,.68-.32A.93.93,0,0,0,21,8.2Z"/>
</svg>